<svg id="Capa_1" enable-background="new 0 0 512 512" height="512" viewBox="0 0 512 512" width="512" xmlns="http://www.w3.org/2000/svg"><g><g><path d="m30 112.508c-16.569 0-30 13.431-30 30v230.249l256 20 20-164.136-20-116.113z" fill="#5a5f64"/><path d="m512 142.508c0-16.569-13.431-30-30-30h-226v280.249l256-20z" fill="#373c41"/></g><g><path d="m206.316 427v25c0 16.569-13.431 30-30 30l79.684 20 20-49.867-20-25.133z" fill="#d2d2d7"/><path d="m305.684 452v-25h-49.684v75l79.684-20c-16.569 0-30-13.431-30-30z" fill="#919196"/></g><path d="m256 482h-120v30h120l20-15z" fill="#ebebf0"/><path d="m0 372.757v33.734c0 16.569 13.431 30 30 30h226l20-31.867-20-31.867z" fill="#ebebf0"/><g><path d="m256 482h120v30h-120z" fill="#d2d2d7"/><path d="m256 372.757v63.734h226c16.569 0 30-13.431 30-30v-33.734z" fill="#d2d2d7"/><path d="m195.699 60.301v38.988h30v-38.988c0-16.708 13.593-30.301 30.301-30.301l10-14-10-16c-33.25 0-60.301 27.051-60.301 60.301z" fill="#ffeb99"/><path d="m256 0v30c16.708 0 30.301 13.593 30.301 30.301v38.988h30v-38.988c0-33.25-27.051-60.301-60.301-60.301z" fill="#ffc477"/></g><g><path d="m161.99 89.289-14.832 215.971h108.842l20-95.26-20-120.711z" fill="#ffa2c1"/><path d="m350.01 89.289h-94.01v215.971h108.842z" fill="#f37bb6"/></g><g><path d="m224.653 197.275c0 17.313 14.034 31.347 31.347 31.347l10-31.347-10-31.347c-17.313 0-31.347 14.034-31.347 31.347z" fill="#ffeb99"/><path d="m256 165.928v62.694c17.312 0 31.347-14.034 31.347-31.347s-14.035-31.347-31.347-31.347z" fill="#ffc477"/></g></g></svg>